<svg width="882" height="683" viewBox="0 0 882 683" fill="none" xmlns="http://www.w3.org/2000/svg">
<path fill-rule="evenodd" clip-rule="evenodd" d="M355.077 23.8015C316.407 45.9783 282.814 82.5572 257.349 128.956C217.219 143.474 181.592 162.59 152.176 185.238C194.573 106.912 267.577 47.7071 355.077 23.8015ZM362.415 102.72C331.502 106.905 301.976 113.469 274.331 122.112C308.386 66.7227 355.192 28.3103 407.873 16.5576C390.225 33.5769 374.739 63.516 362.415 102.72ZM442.036 12.4182C465.675 12.4182 489.804 44.0074 508.289 100.38C486.763 97.984 464.634 96.7076 442.036 96.7076C419.437 96.7076 397.307 97.984 375.782 100.38C394.268 44.0074 418.393 12.4182 442.036 12.4182ZM608.704 122.112C581.059 113.469 551.531 106.905 520.621 102.72C508.299 63.516 492.81 33.5769 475.162 16.5576C527.844 28.3103 574.65 66.7227 608.704 122.112ZM730.859 185.238C701.444 162.59 665.817 143.474 625.686 128.956C600.22 82.5572 566.629 45.9783 527.958 23.8015C615.456 47.7071 688.463 106.912 730.859 185.238ZM248.613 144.487C205.273 161.553 167.987 184.177 139.225 210.744C134.145 211.872 129.163 213.034 124.225 214.214C124.238 214.183 124.25 214.157 124.262 214.126C125.558 210.903 126.915 207.71 128.306 204.533C128.369 204.389 128.426 204.243 128.489 204.099C128.493 204.095 128.498 204.093 128.5 204.089C181.387 83.9277 301.625 0 441.519 0C581.41 0 701.646 83.9277 754.536 204.089C754.538 204.093 754.542 204.095 754.546 204.099C754.615 204.255 754.676 204.416 754.745 204.572C756.122 207.716 757.465 210.877 758.749 214.069C758.769 214.118 758.794 214.167 758.81 214.214C753.874 213.034 748.89 211.872 743.81 210.744C715.053 184.177 677.764 161.553 634.422 144.487C642.163 160.35 648.992 177.201 654.798 194.892C650.343 194.272 645.847 193.673 641.327 193.092C634.619 173.606 626.616 155.256 617.514 138.24C588.7 128.204 557.519 120.555 524.617 115.711C530.372 136.3 535.33 159.077 539.35 183.625C535.187 183.381 531.003 183.152 526.804 182.939C522.629 158.011 517.46 134.815 511.397 113.915C488.785 111.143 465.427 109.68 441.519 109.68C417.611 109.68 394.25 111.143 371.638 113.915C365.577 134.815 360.408 158.011 356.232 182.939C352.033 183.152 347.85 183.381 343.686 183.625C347.705 159.077 352.665 136.3 358.418 115.711C325.517 120.555 294.336 128.204 265.521 138.24C256.421 155.256 248.42 173.606 241.71 193.092C237.19 193.673 232.692 194.272 228.239 194.892C234.043 177.201 240.874 160.35 248.613 144.487ZM740.782 474.745C746.541 473.489 752.184 472.186 757.775 470.856L757.769 470.868H757.771C756.794 473.243 755.788 475.601 754.761 477.947C754.653 478.199 754.553 478.451 754.444 478.699C754.435 478.707 754.427 478.711 754.421 478.719C701.553 598.989 581.363 682.998 441.519 683H441.517C301.67 683 181.482 598.989 128.614 478.719C128.606 478.713 128.598 478.707 128.59 478.699C128.474 478.436 128.368 478.17 128.254 477.908C127.235 475.574 126.233 473.23 125.265 470.868C125.263 470.864 125.263 470.86 125.261 470.856C130.847 472.186 136.492 473.489 142.252 474.745C170.58 500.18 206.811 521.862 248.671 538.366C241.249 523.134 234.66 506.994 229.014 490.068C233.476 490.69 237.979 491.288 242.505 491.869C249.058 510.584 256.814 528.227 265.581 544.638C294.383 554.682 325.551 562.337 358.439 567.186C352.848 547.158 348.016 525.051 344.061 501.269C348.228 501.513 352.409 501.747 356.61 501.956C360.72 526.121 365.768 548.638 371.657 568.981C394.265 571.756 417.613 573.225 441.517 573.225C465.42 573.225 488.766 571.756 511.376 568.981C517.267 548.638 522.311 526.121 526.423 501.956C530.622 501.747 534.807 501.513 538.972 501.269C535.015 525.051 530.183 547.158 524.594 567.186C557.482 562.337 588.648 554.682 617.452 544.638C626.219 528.227 633.975 510.584 640.526 491.869C645.055 491.288 649.557 490.69 654.019 490.068C648.373 506.994 641.782 523.134 634.362 538.366C676.224 521.862 712.451 500.18 740.782 474.745ZM0 272.874C1.24988 272.416 2.51201 271.957 3.78231 271.499C34.6086 260.367 70.998 249.627 111.803 240.085V296.576L89.9688 299.283L92.3255 438.776C70.8346 433.363 50.7283 427.636 32.1721 421.718V308.488L0 314.441V272.874ZM527.958 659.198C615.457 635.282 688.455 576.077 730.859 497.762C701.441 520.407 665.816 539.521 625.688 554.04C600.221 600.434 566.628 637.017 527.958 659.198ZM520.602 579.254C508.284 618.444 492.805 648.389 475.162 665.408C527.843 653.652 574.648 615.241 608.704 559.853C581.055 568.499 551.519 575.068 520.602 579.254ZM442.036 670.582C465.675 670.582 489.804 638.989 508.289 582.62C486.766 585.016 464.636 586.292 442.036 586.292C419.437 586.292 397.307 585.016 375.782 582.62C394.266 638.989 418.397 670.582 442.036 670.582ZM274.331 559.853C308.385 615.241 355.19 653.652 407.873 665.408C390.23 648.389 374.751 618.444 362.432 579.254C331.514 575.068 301.98 568.499 274.331 559.853ZM152.176 497.762C194.58 576.078 267.575 635.281 355.077 659.198C316.406 637.016 282.808 600.434 257.345 554.039C217.215 539.519 181.594 520.405 152.176 497.762ZM881.995 273.314C881.997 315.19 882.004 368.888 881.997 409.688C865.643 415.744 847.647 421.691 828.171 427.411L781.683 335.023L783.425 439.457C766.685 443.59 749.14 447.519 730.859 451.194V231.806C750.809 235.819 769.884 240.134 787.987 244.679C804.521 284.394 811.755 301.564 829.883 334.525C830.295 334.515 830.32 308.38 829.95 256.117C848.742 261.671 866.146 267.441 881.995 273.314ZM334.373 476.03C315.008 474.677 296.012 472.977 277.437 470.975V212.025C296.012 210.023 315.008 208.323 334.373 206.97V476.03ZM409.686 480.17C390.519 479.777 371.605 479.024 353.011 477.948C353.025 390.713 353.025 291.946 353.007 206.32C374.057 205.104 395.515 204.302 417.292 203.965C420.513 203.93 423.901 203.902 427.772 203.865C447.695 203.867 494.831 222.763 494.831 296.733C494.831 393.734 409.686 387.784 409.686 387.784V480.17ZM180.143 376.105C180.143 393.777 180.141 420.411 180.137 456.008C160.395 452.513 141.381 448.71 123.19 444.665V236.559C128.125 235.465 133.107 234.382 138.162 233.324C164.209 227.996 193.562 223.094 193.562 223.094C193.562 223.094 198.687 222.55 208.937 221.461C246.177 221.102 264.796 245.721 264.796 295.319C264.796 350.424 240.651 356.248 229.391 361.548C245.919 408.288 258.83 444.035 268.12 468.786C245.615 466.205 223.772 463.188 202.666 459.805C194.972 431.328 189.961 402.204 181.205 376.158C180.77 376.119 180.572 376.142 180.143 376.105ZM718.437 453.779C699.801 457.355 680.44 460.654 660.465 463.612C660.467 386.897 660.471 296.249 660.471 219.388C680.448 222.348 699.801 225.645 718.437 229.221V453.779ZM648.92 311.816C646.083 392.94 562.664 386.091 562.664 386.091C562.664 386.091 562.668 439.19 562.668 474.58C544.192 476.076 525.354 477.262 506.22 478.1C506.233 390.733 506.228 290.556 506.218 204.9C524.985 205.724 543.465 206.883 561.597 208.337C567.571 208.923 573.969 209.593 581.201 210.383C610.342 213.151 651.957 225.016 648.92 311.816ZM409.944 267.094V319.665C409.944 319.665 437.894 322.884 437.894 293.381C437.894 263.875 409.944 267.094 409.944 267.094ZM181.162 280.183V320.803C181.162 320.803 201.866 320.255 201.866 296.455C201.866 274.025 181.162 280.183 181.162 280.183ZM563.155 321.737C563.155 321.737 588 324.891 588 295.966C588 267.042 563.155 270.197 563.155 270.197V321.737Z" fill="black"/>
</svg>
